<mxfile host="app.diagrams.net" modified="2023-12-12T09:54:28.222Z" agent="Mozilla/5.0 (Windows NT 10.0; Win64; x64) AppleWebKit/537.36 (KHTML, like Gecko) Chrome/119.0.0.0 Safari/537.36 Edg/119.0.0.0" etag="97g6VcPVG7cunueZcflt" version="22.1.7" type="github">
  <diagram name="Page-1" id="zYGFYwWdgDgnHZVmgpOS">
    <mxGraphModel dx="601" dy="308" grid="1" gridSize="10" guides="1" tooltips="1" connect="1" arrows="1" fold="1" page="1" pageScale="1" pageWidth="850" pageHeight="1100" math="0" shadow="0">
      <root>
        <mxCell id="0" />
        <mxCell id="1" parent="0" />
        <mxCell id="6ISc3NO1TbWstHizMqf0-1" value="" style="shape=umlLifeline;perimeter=lifelinePerimeter;whiteSpace=wrap;html=1;container=0;dropTarget=0;collapsible=0;recursiveResize=0;outlineConnect=0;portConstraint=eastwest;newEdgeStyle={&quot;curved&quot;:0,&quot;rounded&quot;:0};participant=umlActor;" parent="1" vertex="1">
          <mxGeometry x="40" y="160" width="20" height="530" as="geometry" />
        </mxCell>
        <mxCell id="31nMpwVcb4EoJ7QhzkkQ-10" value="" style="html=1;points=[[0,0,0,0,5],[0,1,0,0,-5],[1,0,0,0,5],[1,1,0,0,-5]];perimeter=orthogonalPerimeter;outlineConnect=0;targetShapes=umlLifeline;portConstraint=eastwest;newEdgeStyle={&quot;curved&quot;:0,&quot;rounded&quot;:0};" vertex="1" parent="6ISc3NO1TbWstHizMqf0-1">
          <mxGeometry x="5" y="200" width="10" height="80" as="geometry" />
        </mxCell>
        <mxCell id="6ISc3NO1TbWstHizMqf0-3" value=":PembelianTasUI" style="text;html=1;strokeColor=none;fillColor=none;align=center;verticalAlign=middle;whiteSpace=wrap;rounded=0;" parent="1" vertex="1">
          <mxGeometry x="160" y="210" width="60" height="30" as="geometry" />
        </mxCell>
        <mxCell id="6ISc3NO1TbWstHizMqf0-4" value=":BBControl" style="text;html=1;strokeColor=none;fillColor=none;align=center;verticalAlign=middle;whiteSpace=wrap;rounded=0;" parent="1" vertex="1">
          <mxGeometry x="282" y="210" width="60" height="30" as="geometry" />
        </mxCell>
        <mxCell id="6ISc3NO1TbWstHizMqf0-6" value="" style="shape=umlLifeline;perimeter=lifelinePerimeter;whiteSpace=wrap;html=1;container=0;dropTarget=0;collapsible=0;recursiveResize=0;outlineConnect=0;portConstraint=eastwest;newEdgeStyle={&quot;curved&quot;:0,&quot;rounded&quot;:0};participant=umlBoundary;" parent="1" vertex="1">
          <mxGeometry x="170" y="160" width="50" height="540" as="geometry" />
        </mxCell>
        <mxCell id="6ISc3NO1TbWstHizMqf0-14" value=":Konsumen" style="text;html=1;strokeColor=none;fillColor=none;align=center;verticalAlign=middle;whiteSpace=wrap;rounded=0;" parent="1" vertex="1">
          <mxGeometry x="20" y="205" width="60" height="30" as="geometry" />
        </mxCell>
        <mxCell id="6ISc3NO1TbWstHizMqf0-20" value="" style="shape=umlLifeline;perimeter=lifelinePerimeter;whiteSpace=wrap;html=1;container=1;dropTarget=0;collapsible=0;recursiveResize=0;outlineConnect=0;portConstraint=eastwest;newEdgeStyle={&quot;curved&quot;:0,&quot;rounded&quot;:0};participant=umlControl;" parent="1" vertex="1">
          <mxGeometry x="300" y="160" width="40" height="540" as="geometry" />
        </mxCell>
        <mxCell id="6ISc3NO1TbWstHizMqf0-22" value="" style="html=1;points=[[0,0,0,0,5],[0,1,0,0,-5],[1,0,0,0,5],[1,1,0,0,-5]];perimeter=orthogonalPerimeter;outlineConnect=0;targetShapes=umlLifeline;portConstraint=eastwest;newEdgeStyle={&quot;curved&quot;:0,&quot;rounded&quot;:0};" parent="6ISc3NO1TbWstHizMqf0-20" vertex="1">
          <mxGeometry x="15" y="107" width="10" height="43" as="geometry" />
        </mxCell>
        <mxCell id="6ISc3NO1TbWstHizMqf0-26" value="::index" style="html=1;verticalAlign=bottom;endArrow=block;curved=0;rounded=0;exitX=-0.3;exitY=0.254;exitDx=0;exitDy=0;exitPerimeter=0;" parent="1" source="6ISc3NO1TbWstHizMqf0-22" target="6ISc3NO1TbWstHizMqf0-21" edge="1">
          <mxGeometry width="80" relative="1" as="geometry">
            <mxPoint x="380" y="350" as="sourcePoint" />
            <mxPoint x="200" y="280" as="targetPoint" />
          </mxGeometry>
        </mxCell>
        <mxCell id="6ISc3NO1TbWstHizMqf0-27" value=":viewTas" style="html=1;verticalAlign=bottom;endArrow=block;curved=0;rounded=0;" parent="1" edge="1">
          <mxGeometry width="80" relative="1" as="geometry">
            <mxPoint x="320.5000000000001" y="300" as="sourcePoint" />
            <mxPoint x="435.0000000000002" y="300" as="targetPoint" />
          </mxGeometry>
        </mxCell>
        <mxCell id="6ISc3NO1TbWstHizMqf0-35" value=":dataBB" style="text;html=1;strokeColor=none;fillColor=none;align=center;verticalAlign=middle;whiteSpace=wrap;rounded=0;" parent="1" vertex="1">
          <mxGeometry x="510" y="211" width="60" height="30" as="geometry" />
        </mxCell>
        <mxCell id="6ISc3NO1TbWstHizMqf0-36" value="" style="shape=umlLifeline;perimeter=lifelinePerimeter;whiteSpace=wrap;html=1;container=0;dropTarget=0;collapsible=0;recursiveResize=0;outlineConnect=0;portConstraint=eastwest;newEdgeStyle={&quot;curved&quot;:0,&quot;rounded&quot;:0};participant=umlEntity;" parent="1" vertex="1">
          <mxGeometry x="520" y="161" width="40" height="539" as="geometry" />
        </mxCell>
        <mxCell id="6ISc3NO1TbWstHizMqf0-43" value=":Tas" style="text;html=1;strokeColor=none;fillColor=none;align=center;verticalAlign=middle;whiteSpace=wrap;rounded=0;" parent="1" vertex="1">
          <mxGeometry x="620" y="211" width="60" height="30" as="geometry" />
        </mxCell>
        <mxCell id="6ISc3NO1TbWstHizMqf0-44" value="" style="shape=umlLifeline;perimeter=lifelinePerimeter;whiteSpace=wrap;html=1;container=1;dropTarget=0;collapsible=0;recursiveResize=0;outlineConnect=0;portConstraint=eastwest;newEdgeStyle={&quot;curved&quot;:0,&quot;rounded&quot;:0};participant=umlEntity;" parent="1" vertex="1">
          <mxGeometry x="630" y="160" width="40" height="540" as="geometry" />
        </mxCell>
        <mxCell id="31nMpwVcb4EoJ7QhzkkQ-1" value="" style="html=1;points=[[0,0,0,0,5],[0,1,0,0,-5],[1,0,0,0,5],[1,1,0,0,-5]];perimeter=orthogonalPerimeter;outlineConnect=0;targetShapes=umlLifeline;portConstraint=eastwest;newEdgeStyle={&quot;curved&quot;:0,&quot;rounded&quot;:0};" vertex="1" parent="6ISc3NO1TbWstHizMqf0-44">
          <mxGeometry x="15" y="180" width="10" height="110" as="geometry" />
        </mxCell>
        <mxCell id="6ISc3NO1TbWstHizMqf0-45" value="" style="html=1;points=[[0,0,0,0,5],[0,1,0,0,-5],[1,0,0,0,5],[1,1,0,0,-5]];perimeter=orthogonalPerimeter;outlineConnect=0;targetShapes=umlLifeline;portConstraint=eastwest;newEdgeStyle={&quot;curved&quot;:0,&quot;rounded&quot;:0};" parent="1" vertex="1">
          <mxGeometry x="645" y="480" width="10" height="30" as="geometry" />
        </mxCell>
        <mxCell id="6ISc3NO1TbWstHizMqf0-5" value=":Tas" style="text;html=1;strokeColor=none;fillColor=none;align=center;verticalAlign=middle;whiteSpace=wrap;rounded=0;" parent="1" vertex="1">
          <mxGeometry x="410" y="210" width="60" height="30" as="geometry" />
        </mxCell>
        <mxCell id="6ISc3NO1TbWstHizMqf0-8" value="" style="shape=umlLifeline;perimeter=lifelinePerimeter;whiteSpace=wrap;html=1;container=1;dropTarget=0;collapsible=0;recursiveResize=0;outlineConnect=0;portConstraint=eastwest;newEdgeStyle={&quot;curved&quot;:0,&quot;rounded&quot;:0};participant=umlEntity;" parent="1" vertex="1">
          <mxGeometry x="420" y="160" width="40" height="540" as="geometry" />
        </mxCell>
        <mxCell id="6ISc3NO1TbWstHizMqf0-24" value="" style="html=1;points=[[0,0,0,0,5],[0,1,0,0,-5],[1,0,0,0,5],[1,1,0,0,-5]];perimeter=orthogonalPerimeter;outlineConnect=0;targetShapes=umlLifeline;portConstraint=eastwest;newEdgeStyle={&quot;curved&quot;:0,&quot;rounded&quot;:0};" parent="6ISc3NO1TbWstHizMqf0-8" vertex="1">
          <mxGeometry x="15" y="135" width="10" height="5" as="geometry" />
        </mxCell>
        <mxCell id="6ISc3NO1TbWstHizMqf0-21" value="" style="html=1;points=[[0,0,0,0,5],[0,1,0,0,-5],[1,0,0,0,5],[1,1,0,0,-5]];perimeter=orthogonalPerimeter;outlineConnect=0;targetShapes=umlLifeline;portConstraint=eastwest;newEdgeStyle={&quot;curved&quot;:0,&quot;rounded&quot;:0};" parent="1" vertex="1">
          <mxGeometry x="190" y="265" width="10" height="85" as="geometry" />
        </mxCell>
        <mxCell id="6ISc3NO1TbWstHizMqf0-37" value="" style="html=1;points=[[0,0,0,0,5],[0,1,0,0,-5],[1,0,0,0,5],[1,1,0,0,-5]];perimeter=orthogonalPerimeter;outlineConnect=0;targetShapes=umlLifeline;portConstraint=eastwest;newEdgeStyle={&quot;curved&quot;:0,&quot;rounded&quot;:0};" parent="1" vertex="1">
          <mxGeometry x="535" y="420" width="10" height="55" as="geometry" />
        </mxCell>
        <mxCell id="31nMpwVcb4EoJ7QhzkkQ-6" value="" style="html=1;verticalAlign=bottom;endArrow=block;curved=0;rounded=0;" edge="1" parent="1" target="31nMpwVcb4EoJ7QhzkkQ-5">
          <mxGeometry width="80" relative="1" as="geometry">
            <mxPoint x="440" y="330" as="sourcePoint" />
            <mxPoint x="650" y="330" as="targetPoint" />
          </mxGeometry>
        </mxCell>
        <mxCell id="31nMpwVcb4EoJ7QhzkkQ-5" value="" style="html=1;points=[[0,0,0,0,5],[0,1,0,0,-5],[1,0,0,0,5],[1,1,0,0,-5]];perimeter=orthogonalPerimeter;outlineConnect=0;targetShapes=umlLifeline;portConstraint=eastwest;newEdgeStyle={&quot;curved&quot;:0,&quot;rounded&quot;:0};" vertex="1" parent="1">
          <mxGeometry x="435" y="290" width="10" height="40" as="geometry" />
        </mxCell>
        <mxCell id="31nMpwVcb4EoJ7QhzkkQ-7" value=":cariTas" style="text;html=1;strokeColor=none;fillColor=none;align=center;verticalAlign=middle;whiteSpace=wrap;rounded=0;" vertex="1" parent="1">
          <mxGeometry x="80" y="360" width="60" height="30" as="geometry" />
        </mxCell>
        <mxCell id="6ISc3NO1TbWstHizMqf0-46" value="" style="html=1;points=[[0,0,0,0,5],[0,1,0,0,-5],[1,0,0,0,5],[1,1,0,0,-5]];perimeter=orthogonalPerimeter;outlineConnect=0;targetShapes=umlLifeline;portConstraint=eastwest;newEdgeStyle={&quot;curved&quot;:0,&quot;rounded&quot;:0};" parent="1" vertex="1">
          <mxGeometry x="190" y="380" width="10" height="80" as="geometry" />
        </mxCell>
      </root>
    </mxGraphModel>
  </diagram>
</mxfile>
